<?xml version="1.0" encoding="UTF-8" standalone="no"?><svg xmlns="http://www.w3.org/2000/svg" xmlns:xlink="http://www.w3.org/1999/xlink" contentScriptType="application/ecmascript" contentStyleType="text/css" height="2046px" preserveAspectRatio="none" style="width:1320px;height:2046px;" version="1.1" viewBox="0 0 1320 2046" width="1320px" zoomAndPan="magnify"><defs><filter height="300%" id="f1m3lhsc4lmeqw" width="300%" x="-1" y="-1"><feGaussianBlur result="blurOut" stdDeviation="4.0"/><feColorMatrix in="blurOut" result="blurOut2" type="matrix" values="0 0 0 0 0 0 0 0 0 0 0 0 0 0 0 0 0 0 .4 0"/><feOffset dx="8.0" dy="8.0" in="blurOut2" result="blurOut3"/><feBlend in="SourceGraphic" in2="blurOut3" mode="normal"/></filter></defs><g><text fill="#000000" font-family="sans-serif" font-size="36" lengthAdjust="spacingAndGlyphs" textLength="474" x="410" y="34.8047">React Pakistan Architecture</text><!--MD5=[3fedaa3063110a96706fb23223c88654]
cluster Generic--><rect fill="#FFFFFF" filter="url(#f1m3lhsc4lmeqw)" height="548" style="stroke: #000000; stroke-width: 3.0;" width="1267" x="29" y="56.3984"/><text fill="#000000" font-family="sans-serif" font-size="28" font-weight="bold" lengthAdjust="spacingAndGlyphs" textLength="106" x="609.5" y="87.4688">Generic</text><!--MD5=[b8b5c5a3b8485e718cd5faad0f584373]
cluster ReactJS--><rect fill="#FFFFFF" filter="url(#f1m3lhsc4lmeqw)" height="628" style="stroke: #000000; stroke-width: 3.0;" width="422" x="55" y="652.3984"/><text fill="#000000" font-family="sans-serif" font-size="28" font-weight="bold" lengthAdjust="spacingAndGlyphs" textLength="106" x="213" y="683.4688">ReactJS</text><!--MD5=[dd5e817659db434925fb07a251f70593]
cluster ReactNative--><rect fill="#FFFFFF" filter="url(#f1m3lhsc4lmeqw)" height="694" style="stroke: #000000; stroke-width: 3.0;" width="504" x="14" y="1328.3984"/><text fill="#000000" font-family="sans-serif" font-size="28" font-weight="bold" lengthAdjust="spacingAndGlyphs" textLength="170" x="181" y="1359.4688">ReactNative</text><ellipse cx="1013.6249" cy="344.7234" fill="#FEFECE" filter="url(#f1m3lhsc4lmeqw)" rx="207.6249" ry="46.325" style="stroke: #A80036; stroke-width: 3.0;"/><text fill="#000000" font-family="sans-serif" font-size="28" lengthAdjust="spacingAndGlyphs" textLength="368" x="829.6249" y="354.2117">React Commons Collection</text><ellipse cx="1014.3288" cy="516.2642" fill="#FEFECE" filter="url(#f1m3lhsc4lmeqw)" rx="250.3288" ry="54.8658" style="stroke: #A80036; stroke-width: 3.0;"/><text fill="#000000" font-family="sans-serif" font-size="28" lengthAdjust="spacingAndGlyphs" textLength="460" x="784.3288" y="525.7525">React Native Commons Collection</text><ellipse cx="266.0303" cy="160.4045" fill="#FEFECE" filter="url(#f1m3lhsc4lmeqw)" rx="131.0303" ry="31.0061" style="stroke: #A80036; stroke-width: 3.0;"/><text fill="#000000" font-family="sans-serif" font-size="28" lengthAdjust="spacingAndGlyphs" textLength="188" x="172.0303" y="169.8928">Util Functions</text><ellipse cx="265.8909" cy="502.1766" fill="#FEFECE" filter="url(#f1m3lhsc4lmeqw)" rx="204.8909" ry="45.7782" style="stroke: #A80036; stroke-width: 3.0;"/><text fill="#000000" font-family="sans-serif" font-size="28" lengthAdjust="spacingAndGlyphs" textLength="362" x="84.8909" y="511.6649">Util React Native Functions</text><ellipse cx="265.6094" cy="324.7203" fill="#FEFECE" filter="url(#f1m3lhsc4lmeqw)" rx="167.6094" ry="38.3219" style="stroke: #A80036; stroke-width: 3.0;"/><text fill="#000000" font-family="sans-serif" font-size="28" lengthAdjust="spacingAndGlyphs" textLength="278" x="126.6094" y="334.2086">Eslint Config Shared</text><ellipse cx="266.2517" cy="758.8488" fill="#FEFECE" filter="url(#f1m3lhsc4lmeqw)" rx="158.2517" ry="36.4503" style="stroke: #A80036; stroke-width: 3.0;"/><text fill="#000000" font-family="sans-serif" font-size="28" lengthAdjust="spacingAndGlyphs" textLength="256" x="138.2517" y="768.3371">React UI Collection</text><ellipse cx="266.0624" cy="904.4109" fill="#FEFECE" filter="url(#f1m3lhsc4lmeqw)" rx="171.0624" ry="39.0125" style="stroke: #A80036; stroke-width: 3.0;"/><text fill="#000000" font-family="sans-serif" font-size="28" lengthAdjust="spacingAndGlyphs" textLength="286" x="123.0624" y="913.8992">React Icon Collection</text><ellipse cx="266.4125" cy="1054.2809" fill="#FEFECE" filter="url(#f1m3lhsc4lmeqw)" rx="175.4125" ry="39.8825" style="stroke: #A80036; stroke-width: 3.0;"/><text fill="#000000" font-family="sans-serif" font-size="28" lengthAdjust="spacingAndGlyphs" textLength="296" x="118.4125" y="1063.7692">React Logo Collection</text><ellipse cx="265.9179" cy="1205.982" fill="#FEFECE" filter="url(#f1m3lhsc4lmeqw)" rx="178.9179" ry="40.5836" style="stroke: #A80036; stroke-width: 3.0;"/><text fill="#000000" font-family="sans-serif" font-size="28" lengthAdjust="spacingAndGlyphs" textLength="304" x="113.9179" y="1215.4703">React Emoji Collection</text><ellipse cx="265.5424" cy="1443.9069" fill="#FEFECE" filter="url(#f1m3lhsc4lmeqw)" rx="198.5424" ry="44.5085" style="stroke: #A80036; stroke-width: 3.0;"/><text fill="#000000" font-family="sans-serif" font-size="28" lengthAdjust="spacingAndGlyphs" textLength="348" x="91.5424" y="1453.3952">React Native UI Collection</text><ellipse cx="266.1979" cy="1606.638" fill="#FEFECE" filter="url(#f1m3lhsc4lmeqw)" rx="212.1979" ry="47.2396" style="stroke: #A80036; stroke-width: 3.0;"/><text fill="#000000" font-family="sans-serif" font-size="28" lengthAdjust="spacingAndGlyphs" textLength="378" x="77.1979" y="1616.1263">React Native Icon Collection</text><ellipse cx="265.7904" cy="1772.5565" fill="#FEFECE" filter="url(#f1m3lhsc4lmeqw)" rx="216.7904" ry="48.1581" style="stroke: #A80036; stroke-width: 3.0;"/><text fill="#000000" font-family="sans-serif" font-size="28" lengthAdjust="spacingAndGlyphs" textLength="388" x="71.7904" y="1782.0448">React Native Logo Collection</text><ellipse cx="266.4775" cy="1940.2939" fill="#FEFECE" filter="url(#f1m3lhsc4lmeqw)" rx="220.4775" ry="48.8955" style="stroke: #A80036; stroke-width: 3.0;"/><text fill="#000000" font-family="sans-serif" font-size="28" lengthAdjust="spacingAndGlyphs" textLength="396" x="68.4775" y="1949.7822">React Native Emoji Collection</text><!--MD5=[067d1fc2a70292a83784d7ebff49de33]
link Util Functions to React Commons Collection--><path d="M357.74,182.5984 C483.3,213.6384 712.92,270.4384 864,307.7984 " fill="none" id="Util Functions-to-React Commons Collection" style="stroke: #A80036; stroke-width: 2.0;"/><polygon fill="#A80036" points="873.84,310.2384,858.2925,298.144,864.1335,307.8333,854.4443,313.6744,873.84,310.2384" style="stroke: #A80036; stroke-width: 2.0;"/><text fill="#000000" font-family="sans-serif" font-size="26" lengthAdjust="spacingAndGlyphs" textLength="150" x="552" y="225.5352">dependency</text><!--MD5=[a4f67981370795cd5dfd71b762b04a07]
link Util React Native Functions to React Native Commons Collection--><path d="M470.56,506.7984 C497.28,507.3584 524.3,507.8984 550,508.3984 C616.04,509.6784 687.4,510.9584 753.82,512.0984 " fill="none" id="Util React Native Functions-to-React Native Commons Collection" style="stroke: #A80036; stroke-width: 2.0;"/><polygon fill="#A80036" points="764.44,512.2984,746.5798,503.9911,754.4415,512.127,746.3055,519.9887,764.44,512.2984" style="stroke: #A80036; stroke-width: 2.0;"/><text fill="#000000" font-family="sans-serif" font-size="26" lengthAdjust="spacingAndGlyphs" textLength="150" x="552" y="501.5352">dependency</text><!--MD5=[70cfb4a34ec8a69e7a8c1e339b7303d3]
link Eslint Config Shared to React Commons Collection--><path d="M433.12,328.8384 C540.12,331.7184 680.62,335.4984 796.4,338.5984 " fill="none" id="Eslint Config Shared-to-React Commons Collection" style="stroke: #A80036; stroke-width: 2.0;"/><polygon fill="#A80036" points="806.82,338.8784,789.0558,330.3676,796.8241,338.5928,788.5989,346.3611,806.82,338.8784" style="stroke: #A80036; stroke-width: 2.0;"/><text fill="#000000" font-family="sans-serif" font-size="26" lengthAdjust="spacingAndGlyphs" textLength="150" x="552" y="325.5352">dependency</text><!--MD5=[45f8b6d2ab837ced8735d573bcdbc40e]
link Eslint Config Shared to React Native Commons Collection--><path d="M378.58,352.9384 C500.54,384.3984 698.28,435.4384 840.4,472.1184 " fill="none" id="Eslint Config Shared-to-React Native Commons Collection" style="stroke: #A80036; stroke-width: 2.0;"/><polygon fill="#A80036" points="850.54,474.7384,835.0937,462.5151,840.8539,472.2526,831.1164,478.0129,850.54,474.7384" style="stroke: #A80036; stroke-width: 2.0;"/><text fill="#000000" font-family="sans-serif" font-size="26" lengthAdjust="spacingAndGlyphs" textLength="150" x="552" y="391.5352">dependency</text><!--MD5=[c479d57976bbad9414a3834df38d8c65]
link React UI Collection to React Commons Collection--><path d="M378.54,732.7784 C475.36,705.2584 614.24,652.7984 704,562.3984 C750.56,515.5184 715.1,470.8184 764,426.3984 C787.08,405.4384 815.64,389.8384 845.06,378.1984 " fill="none" id="React UI Collection-to-React Commons Collection" style="stroke: #A80036; stroke-width: 2.0;"/><polygon fill="#A80036" points="855.08,374.3984,835.4129,373.3004,845.7297,377.9441,841.086,388.2609,855.08,374.3984" style="stroke: #A80036; stroke-width: 2.0;"/><text fill="#000000" font-family="sans-serif" font-size="26" lengthAdjust="spacingAndGlyphs" textLength="116" x="569" y="555.5352">extended</text><!--MD5=[ab3c4672faa9f1298464f1fc06f5e21c]
link React Icon Collection to React Commons Collection--><path d="M391.3,877.5184 C437.2,865.3784 489.04,849.0384 534,828.3984 C616.22,790.6384 653.2,791.2784 704,716.3984 C777.9,607.4784 676.44,524.6784 764,426.3984 C783.92,404.0384 810.06,387.7584 837.9,375.8984 " fill="none" id="React Icon Collection-to-React Commons Collection" style="stroke: #A80036; stroke-width: 2.0;"/><polygon fill="#A80036" points="847.4,372.0584,827.7137,371.3889,838.1291,375.8069,833.7111,386.2223,847.4,372.0584" style="stroke: #A80036; stroke-width: 2.0;"/><text fill="#000000" font-family="sans-serif" font-size="26" lengthAdjust="spacingAndGlyphs" textLength="116" x="569" y="709.5352">extended</text><!--MD5=[07f058c2d6e04d8894069cd4368ce1c8]
link React Logo Collection to React Commons Collection--><path d="M418.84,1034.6184 C518.72,1012.7184 642.3,966.7384 704,870.3984 C811.38,702.6984 636.8,579.5984 764,426.3984 C782.86,403.6784 808.2,387.1984 835.46,375.2784 " fill="none" id="React Logo Collection-to-React Commons Collection" style="stroke: #A80036; stroke-width: 2.0;"/><polygon fill="#A80036" points="844.78,371.3984,825.0884,370.9066,835.5433,375.2304,831.2195,385.6853,844.78,371.3984" style="stroke: #A80036; stroke-width: 2.0;"/><text fill="#000000" font-family="sans-serif" font-size="26" lengthAdjust="spacingAndGlyphs" textLength="116" x="569" y="863.5352">extended</text><!--MD5=[54a668b76e340e9f4b1964a8c497f5b3]
link React Emoji Collection to React Commons Collection--><path d="M429.98,1189.6984 C527.26,1170.3184 643.56,1128.4984 704,1038.3984 C780.12,924.9184 678.64,533.1184 764,426.3984 C782.32,403.4984 807.22,386.9184 834.2,374.9584 " fill="none" id="React Emoji Collection-to-React Commons Collection" style="stroke: #A80036; stroke-width: 2.0;"/><polygon fill="#A80036" points="843.42,371.0784,823.7261,370.6904,834.2036,374.959,829.935,385.4365,843.42,371.0784" style="stroke: #A80036; stroke-width: 2.0;"/><text fill="#000000" font-family="sans-serif" font-size="26" lengthAdjust="spacingAndGlyphs" textLength="116" x="569" y="1031.5352">extended</text><!--MD5=[82349aa405994054dbaba32c3692000f]
link React Native UI Collection to React Native Commons Collection--><path d="M376.6,1406.8984 C473.44,1368.6584 613.52,1300.8984 704,1202.3984 C876.58,1014.5384 965.16,713.7784 997.42,581.9184 " fill="none" id="React Native UI Collection-to-React Native Commons Collection" style="stroke: #A80036; stroke-width: 2.0;"/><polygon fill="#A80036" points="999.82,571.9584,987.7795,587.5477,997.4485,581.6732,1003.323,591.3422,999.82,571.9584" style="stroke: #A80036; stroke-width: 2.0;"/><text fill="#000000" font-family="sans-serif" font-size="26" lengthAdjust="spacingAndGlyphs" textLength="116" x="569" y="1195.5352">extended</text><!--MD5=[d2fadde29d5e84eea42ec6a4142f3092]
link React Native Icon Collection to React Native Commons Collection--><path d="M416.34,1573.1384 C456.02,1560.9584 497.88,1544.9584 534,1524.3984 C622.6,1473.9584 647.24,1455.0784 704,1370.3984 C880.1,1107.6384 969.38,732.0384 999.74,581.9784 " fill="none" id="React Native Icon Collection-to-React Native Commons Collection" style="stroke: #A80036; stroke-width: 2.0;"/><polygon fill="#A80036" points="1001.82,571.5784,990.4813,587.6854,999.8808,581.3886,1006.1775,590.7881,1001.82,571.5784" style="stroke: #A80036; stroke-width: 2.0;"/><text fill="#000000" font-family="sans-serif" font-size="26" lengthAdjust="spacingAndGlyphs" textLength="116" x="569" y="1363.5352">extended</text><!--MD5=[3f466a5dd306a89a7ef301169d048915]
link React Native Logo Collection to React Native Commons Collection--><path d="M423.4,1739.2984 C520.28,1710.1584 638.6,1657.3384 704,1564.3984 C929.78,1243.5584 991.78,756.8584 1007.28,581.8984 " fill="none" id="React Native Logo Collection-to-React Native Commons Collection" style="stroke: #A80036; stroke-width: 2.0;"/><polygon fill="#A80036" points="1008.14,571.8184,998.6236,589.0648,1007.2811,581.7815,1014.5644,590.439,1008.14,571.8184" style="stroke: #A80036; stroke-width: 2.0;"/><text fill="#000000" font-family="sans-serif" font-size="26" lengthAdjust="spacingAndGlyphs" textLength="116" x="569" y="1557.5352">extended</text><!--MD5=[2c067563ffb437f97b34edf361a54187]
link React Native Emoji Collection to React Native Commons Collection--><path d="M430.88,1907.8384 C526.58,1879.7584 640.84,1828.8584 704,1738.3984 C967.92,1360.3584 1006.04,776.6784 1011.28,582.0584 " fill="none" id="React Native Emoji Collection-to-React Native Commons Collection" style="stroke: #A80036; stroke-width: 2.0;"/><polygon fill="#A80036" points="1011.52,571.9984,1003.0599,589.7868,1011.2629,581.9951,1019.0547,590.1981,1011.52,571.9984" style="stroke: #A80036; stroke-width: 2.0;"/><text fill="#000000" font-family="sans-serif" font-size="26" lengthAdjust="spacingAndGlyphs" textLength="116" x="569" y="1731.5352">extended</text><!--MD5=[87ac5f5f1d7948843d5514e62967951c]
@startuml
scale 2
title React Pakistan Architecture
left to right direction

rectangle Generic {
  (React Commons Collection)
  (React Native Commons Collection)
  (Util Functions) - -> (React Commons Collection) : dependency
  (Util React Native Functions) - -> (React Native Commons Collection) : dependency
  (Eslint Config Shared) - -> (React Commons Collection) : dependency
  (Eslint Config Shared) - -> (React Native Commons Collection) : dependency
}

rectangle ReactJS {
  (React UI Collection) - -> (React Commons Collection) : extended
  (React Icon Collection) - -> (React Commons Collection) : extended
  (React Logo Collection) - -> (React Commons Collection) : extended
  (React Emoji Collection) - -> (React Commons Collection) : extended
}

rectangle ReactNative {
  (React Native UI Collection) - -> (React Native Commons Collection) : extended
  (React Native Icon Collection) - -> (React Native Commons Collection) : extended
  (React Native Logo Collection) - -> (React Native Commons Collection) : extended
  (React Native Emoji Collection) - -> (React Native Commons Collection) : extended
}

@enduml

PlantUML version 1.2020.18(Thu Oct 01 00:40:44 PKT 2020)
(GPL source distribution)
Java Runtime: OpenJDK Runtime Environment
JVM: OpenJDK 64-Bit Server VM
Default Encoding: UTF-8
Language: en
Country: GB
--></g></svg>