<?xml version="1.0" encoding="UTF-8" standalone="no"?>
<svg
  xmlns:dc="http://purl.org/dc/elements/1.1/"
  xmlns:cc="http://creativecommons.org/ns#"
  xmlns:rdf="http://www.w3.org/1999/02/22-rdf-syntax-ns#"
  xmlns:svg="http://www.w3.org/2000/svg"
  xmlns="http://www.w3.org/2000/svg"
  viewBox="0 0 250 250"
  height="100"
  width="100"
  xml:space="preserve"
  id="svg2"
  version="1.1"
>
  <defs
    id="defs6"
  />
  <g
    transform="matrix(1.3333333,0,0,-1.3333333,0,283.46667)"
    id="g10"
  >
  <g
    transform="scale(0.1)"
    id="g12"
  >
    <path
      id="path14"
      style="fill:#FFFFFF;fill-opacity:0;fill-rule:nonzero;stroke:none"
      d="M 4251.97,0 H 0 V 2125.98 H 4251.97 V 0"
    />
    <path
      id="path16"
      style="fill:#FFFFFF;fill-opacity:1;fill-rule:nonzero;stroke:none"
      d="m 1281.85,890.262 c -7.83,-2.59 -15.85,-5.09 -24.02,-7.524 -18.1,57.301 -42.52,118.212 -72.41,181.152 28.52,61.44 52,121.59 69.59,178.5 14.63,-4.23 28.82,-8.69 42.5,-13.4 132.32,-45.56 213.04,-112.9 213.04,-164.8 0,-55.28 -87.17,-127.03 -228.7,-173.928 z m -51.86,-305.09 c -8.52,-45.902 -25.64,-76.512 -46.82,-88.774 -45.06,-26.078 -141.43,7.832 -245.357,97.262 -11.915,10.238 -23.911,21.192 -35.954,32.781 40.293,44.071 80.559,95.297 119.861,152.188 69.12,6.133 134.43,16.16 193.66,29.851 2.91,-11.761 5.5,-23.308 7.74,-34.589 14.31,-72.282 16.35,-137.629 6.87,-188.719 z M 859.059,670.16 c -28.957,31.231 -57.832,65.789 -86.036,102.961 27.375,-1.07 55.293,-1.633 83.661,-1.633 29.144,0 57.957,0.672 86.312,1.934 C 915.156,735.57 887.043,700.969 859.059,670.16 Z M 789.285,601.109 C 733.809,552.621 678.215,518.211 629.219,500.91 585.191,485.359 550.129,484.922 528.93,497.141 483.828,523.148 465.078,623.57 490.652,758.27 c 2.934,15.429 6.418,31.281 10.438,47.468 58.574,-12.949 123.402,-22.269 192.695,-27.886 39.567,-55.672 80.996,-106.84 122.742,-151.641 -9.121,-8.813 -18.207,-17.199 -27.242,-25.102 z M 458.254,879.551 c -12.164,3.488 -23.953,7.179 -35.293,11.051 -69.723,23.828 -127.309,54.808 -166.773,88.597 -35.465,30.371 -53.372,60.521 -53.372,84.991 0,52.07 77.629,118.48 207.09,163.62 15.715,5.48 32.16,10.64 49.227,15.49 17.887,-58.21 41.359,-119.06 69.683,-180.59 -28.687,-62.45 -52.492,-124.28 -70.562,-183.159 z m 69.73,748.609 c 47.836,27.7 153.618,-11.79 265.106,-110.78 7.129,-6.33 14.281,-12.95 21.457,-19.81 -41.543,-44.61 -82.594,-95.39 -121.809,-150.74 -67.25,-6.23 -131.625,-16.24 -190.808,-29.65 -3.723,14.97 -7.02,29.67 -9.828,44.05 -26.875,137.34 -9.028,240.93 35.882,266.93 z m 329.379,-174.24 c 28.18,-30.53 56.391,-64.61 84.145,-101.58 -27.961,1.32 -56.278,2 -84.824,2 -28.278,0 -56.379,-0.66 -84.172,-1.96 27.777,36.63 56.238,70.66 84.851,101.54 z m 292.667,-319.4 c -12.97,24.63 -26.69,49.46 -41.14,74.41 -14.15,24.44 -28.67,48.3 -43.48,71.51 45.63,-5.77 89.34,-13.42 130.38,-22.79 -12.32,-39.5 -27.68,-80.79 -45.76,-123.13 z m -40.89,-217.192 c 14.56,25.274 28.39,50.563 41.47,75.762 19.11,-43.551 35.22,-85.699 48.02,-125.781 -41.46,-9.457 -86.22,-17.079 -133.39,-22.731 14.85,23.512 29.5,47.793 43.9,72.75 z M 563.863,1134.57 c -17.789,42.18 -33.004,83.67 -45.433,123.72 40.793,9.14 84.3,16.6 129.633,22.26 -15.016,-23.43 -29.665,-47.46 -43.833,-72.04 v 0 C 590.094,1184 576.633,1159.3 563.863,1134.57 Z m 0.067,-143.66 c 12.804,-24.73 26.32,-49.441 40.539,-74 h 0.004 c 14.48,-25.019 29.492,-49.531 44.89,-73.43 -46.836,5.231 -90.996,12.309 -131.781,21.192 12.633,40.769 28.184,83.137 46.348,126.238 z m 32.394,71.82 c 18.473,38.45 38.805,77.08 60.824,115.27 l -0.003,-0.01 c 22.085,38.29 45.32,75.22 69.335,110.38 42.524,3.22 86.133,4.89 130.2,4.89 h 0.004 c 44.269,0 87.929,-1.69 130.445,-4.93 23.641,-34.9 46.721,-71.71 68.901,-110.01 22.41,-38.73 43.01,-77.1 61.64,-114.72 -18.57,-38.28 -39.13,-77.041 -61.44,-115.748 -22.36,-38.75 -45.31,-75.75 -68.601,-110.672 -42.43,-3.039 -86.266,-4.598 -130.945,-4.598 -44.496,0 -87.782,1.379 -129.461,4.09 -24.235,35.379 -47.68,72.488 -69.895,110.848 h 0.008 c -22.148,38.261 -42.535,76.84 -61.012,115.21 z m 336.727,465.03 c 105.569,91.87 204.229,128.14 249.189,102.22 47.88,-27.61 66.5,-138.98 36.41,-285.01 -1.92,-9.31 -4.07,-18.81 -6.42,-28.42 -59.32,13.68 -123.74,23.87 -191.19,30.2 -39.294,55.95 -80.005,106.82 -120.872,150.85 10.984,10.57 21.957,20.65 32.883,30.16 z M 1317.4,1286.75 c -14.84,5.1 -30.21,9.93 -46.03,14.5 2.6,10.62 4.99,21.1 7.11,31.39 34.84,169.14 12.06,305.4 -65.73,350.26 -74.6,43.01 -196.59,-1.83 -319.801,-109.06 -11.844,-10.31 -23.73,-21.23 -35.605,-32.66 -7.91,7.56 -15.813,14.88 -23.692,21.87 -129.125,114.65 -258.554,162.97 -336.273,117.98 -74.524,-43.14 -96.594,-171.24 -65.227,-331.53 3.028,-15.48 6.571,-31.29 10.575,-47.37 -18.317,-5.2 -36.004,-10.74 -52.922,-16.64 -151.387,-52.78 -248.071,-135.5 -248.071,-221.3 0,-88.62 103.789,-177.491 261.469,-231.389 12.442,-4.262 25.356,-8.281 38.66,-12.09 -4.32,-17.391 -8.074,-34.422 -11.226,-51.039 -29.91,-157.512 -6.555,-282.582 67.769,-325.453 76.774,-44.27 205.617,1.242 331.074,110.89 9.918,8.68 19.872,17.879 29.84,27.5 12.922,-12.437 25.821,-24.211 38.66,-35.257 121.52,-104.571 241.54,-146.801 315.8,-103.813 76.69,44.402 101.62,178.75 69.26,342.211 -2.47,12.488 -5.35,25.238 -8.58,38.219 9.05,2.679 17.93,5.441 26.59,8.312 163.93,54.309 270.58,142.11 270.58,231.909 0,86.11 -99.8,169.39 -254.23,222.56" /><path
      id="path18"
      style="fill:#FFFFFF;fill-opacity:1;fill-rule:nonzero;stroke:none"
      d="m 1002.59,993.328 c -60.695,-53.957 -153.641,-48.488 -207.594,12.202 -53.957,60.71 -48.488,153.65 12.211,207.6 2.559,2.28 5.195,4.41 7.867,6.48 -64.719,-20.66 -111.594,-81.26 -111.594,-152.83 0,-88.589 71.817,-160.421 160.415,-160.421 64.878,0 120.722,38.551 145.995,93.971 -2.35,-2.389 -4.76,-4.752 -7.3,-7.002" /><path
      id="path20"
      style="fill:#FFFFFF;fill-opacity:1;fill-rule:nonzero;stroke:none"
      d="m 922.387,1186.82 67.574,-76.02 -99.352,21.78 93.18,40.78 -51.418,-87.76 -9.984,101.22"
    />
      <!-- <g
        transform="scale(10)"
        id="g22"
      >
        <text
        id="text26"
        style="font-variant:normal;font-weight:normal;font-size:23.83160019px;font-family:Monaco;-inkscape-font-specification:Monaco;writing-mode:lr-tb;fill:#231f20;fill-opacity:1;fill-rule:nonzero;stroke:none"
        transform="matrix(1,0,0,-1,167.901,107.653)">
          <tspan
            id="tspan24"
            y="0"
            x="0 14.29896 28.597919 42.896881 57.195839 71.507034 85.807846 100.10964 114.41045 128.71227 143.01309 157.3149 171.61569 185.91751 200.21832 214.52011 228.82094">&lt;ReactPakistan /&gt;
          </tspan>
        </text>
        <text
          id="text30"
          style="font-variant:normal;font-weight:300;font-size:16.6821003px;font-family:'Josefin Sans';-inkscape-font-specification:JosefinSans-Light;writing-mode:lr-tb;fill:#231f20;fill-opacity:1;fill-rule:nonzero;stroke:none"
          transform="matrix(1,0,0,-1,222.4358,88.169)"
        >
          <tspan
          id="tspan28"
          y="0"
          x="0 7.823905 16.582006 24.105635 32.363274 37.367172 43.222588 51.046494 59.870712 65.392487 71.815094 79.338722 84.343353 93.101456 98.62323 106.44714 110.20007 117.7237 124.14631 128.20003"
          >
            open source projects
          </tspan>
        </text>
      </g> -->
    </g>
  </g>
</svg>