<svg xmlns="http://www.w3.org/2000/svg" viewBox="0 0 250 250" height="100" width="100"><path d="M566.93 283.467H0V.003h566.93v283.464" fill="none"/><path d="M170.913 164.765c-1.044.345-2.113.679-3.202 1.003-2.414-7.64-5.67-15.761-9.655-24.153 3.803-8.192 6.933-16.212 9.279-23.8a118.93 118.93 0 015.666 1.786c17.643 6.075 28.406 15.054 28.406 21.974 0 7.37-11.623 16.937-30.494 23.19zM164 205.444c-1.136 6.12-3.419 10.201-6.243 11.836-6.008 3.477-18.857-1.044-32.714-12.968a115.347 115.347 0 01-4.794-4.37c5.372-5.877 10.741-12.707 15.981-20.293 9.216-.817 17.924-2.154 25.822-3.98.388 1.568.733 3.108 1.032 4.612 1.908 9.638 2.18 18.35.916 25.163zm-49.458-11.332c-3.86-4.164-7.71-8.772-11.471-13.728 3.65.143 7.372.218 11.155.218 3.885 0 7.727-.09 11.508-.258-3.712 5.047-7.46 9.66-11.192 13.768zm-9.303 9.207c-7.397 6.465-14.81 11.053-21.342 13.36-5.87 2.073-10.545 2.131-13.372.502-6.014-3.467-8.514-16.857-5.104-34.817.391-2.057.856-4.17 1.392-6.33 7.81 1.727 16.454 2.97 25.693 3.72 5.275 7.422 10.8 14.244 16.365 20.218a99.824 99.824 0 01-3.632 3.347zm-44.137-37.126a99.213 99.213 0 01-4.706-1.473c-9.297-3.177-16.975-7.308-22.237-11.813-4.728-4.05-7.116-8.07-7.116-11.332 0-6.943 10.35-15.798 27.612-21.816a117.384 117.384 0 016.564-2.066c2.385 7.762 5.514 15.875 9.29 24.079-3.824 8.327-6.998 16.57-9.407 24.421zm9.297-99.814c6.378-3.694 20.482 1.572 35.347 14.77.95.844 1.904 1.727 2.861 2.642-5.539 5.948-11.012 12.718-16.24 20.098-8.968.831-17.55 2.166-25.442 3.954a118.41 118.41 0 01-1.31-5.874c-3.584-18.312-1.204-32.124 4.784-35.59zm43.917 23.232c3.757 4.07 7.519 8.614 11.22 13.544a239.982 239.982 0 00-22.533-.006c3.703-4.884 7.498-9.421 11.313-13.538zm39.022 42.586a281.757 281.757 0 00-5.485-9.921 258.796 258.796 0 00-5.797-9.535c6.084.77 11.912 1.79 17.384 3.039-1.643 5.267-3.691 10.772-6.102 16.417zm-5.452 28.96a262.682 262.682 0 005.53-10.102c2.548 5.806 4.696 11.426 6.402 16.77-5.528 1.261-11.496 2.278-17.785 3.031a283.504 283.504 0 005.853-9.7zM75.182 132.19c-2.372-5.624-4.4-11.156-6.058-16.496 5.44-1.219 11.24-2.214 17.284-2.968a239.06 239.06 0 00-5.844 9.605 241.833 241.833 0 00-5.382 9.859zm.009 19.154a239.17 239.17 0 005.405 9.867 240.78 240.78 0 005.986 9.79c-6.245-.697-12.133-1.64-17.571-2.825 1.684-5.436 3.758-11.085 6.18-16.832zm4.319-9.576a231.827 231.827 0 018.11-15.369v.001a228.953 228.953 0 019.244-14.717c5.67-.43 11.484-.652 17.36-.652 5.903 0 11.724.225 17.393.657a246.142 246.142 0 019.187 14.668 268.788 268.788 0 018.219 15.296 245.983 245.983 0 01-8.192 15.433 268.343 268.343 0 01-9.147 14.757 245.02 245.02 0 01-17.46.613c-5.932 0-11.704-.184-17.26-.546a231.442 231.442 0 01-9.32-14.78 229.297 229.297 0 01-8.134-15.36zm44.897-62.004c14.076-12.249 27.23-17.085 33.225-13.629 6.384 3.681 8.867 18.53 4.855 38.001a106.781 106.781 0 01-.856 3.79c-7.91-1.824-16.499-3.183-25.492-4.027-5.24-7.46-10.668-14.243-16.117-20.113a119.255 119.255 0 014.385-4.022zm51.246 32.135a129.397 129.397 0 00-6.137-1.933c.347-1.416.665-2.814.948-4.186 4.645-22.552 1.608-40.72-8.764-46.701-9.947-5.735-26.212.244-42.64 14.541a128.98 128.98 0 00-4.747 4.355 116.148 116.148 0 00-3.16-2.916C93.938 59.773 76.68 53.33 66.318 59.33c-9.936 5.751-12.879 22.831-8.697 44.203a127.4 127.4 0 001.41 6.316c-2.442.694-4.8 1.432-7.056 2.219-20.185 7.037-33.076 18.067-33.076 29.507 0 11.816 13.838 23.665 34.862 30.852a106.52 106.52 0 005.155 1.612 124.557 124.557 0 00-1.497 6.805c-3.988 21.001-.874 37.677 9.036 43.393 10.237 5.903 27.416-.165 44.143-14.785a111.21 111.21 0 003.979-3.667 125.196 125.196 0 005.155 4.701c16.202 13.943 32.205 19.574 42.106 13.842 10.226-5.92 13.55-23.833 9.235-45.628-.33-1.665-.713-3.365-1.144-5.096 1.207-.357 2.39-.725 3.545-1.108 21.858-7.241 36.078-18.948 36.078-30.921 0-11.482-13.307-22.586-33.898-29.675" fill="#67c8e1"/><path d="M133.679 151.023c-8.093 7.194-20.486 6.465-27.68-1.627-7.194-8.095-6.465-20.487 1.629-27.68.34-.304.692-.588 1.049-.864-8.63 2.755-14.88 10.835-14.88 20.377 0 11.812 9.576 21.39 21.389 21.39 8.65 0 16.096-5.14 19.466-12.53a19.62 19.62 0 01-.973.934" fill="#67c8e1"/><path d="M122.985 125.224l9.01 10.136-13.247-2.904 12.424-5.437-6.856 11.701-1.331-13.496" fill="#67c8e1"/></svg>